<svg version="1.1" xmlns="http://www.w3.org/2000/svg" xmlns:xlink="http://www.w3.org/1999/xlink" width="683" height="611"><defs/><g><text fill="#eeeeee" stroke="none" font-family="Arial" font-size="24px" font-style="normal" font-weight="normal" text-decoration="none" x="0" y="0">UNREGISTERED</text><text fill="#eeeeee" stroke="none" font-family="Arial" font-size="24px" font-style="normal" font-weight="normal" text-decoration="none" x="0" y="30">UNREGISTERED</text><text fill="#eeeeee" stroke="none" font-family="Arial" font-size="24px" font-style="normal" font-weight="normal" text-decoration="none" x="0" y="60">UNREGISTERED</text><text fill="#eeeeee" stroke="none" font-family="Arial" font-size="24px" font-style="normal" font-weight="normal" text-decoration="none" x="0" y="90">UNREGISTERED</text><text fill="#eeeeee" stroke="none" font-family="Arial" font-size="24px" font-style="normal" font-weight="normal" text-decoration="none" x="0" y="120">UNREGISTERED</text><text fill="#eeeeee" stroke="none" font-family="Arial" font-size="24px" font-style="normal" font-weight="normal" text-decoration="none" x="0" y="150">UNREGISTERED</text><text fill="#eeeeee" stroke="none" font-family="Arial" font-size="24px" font-style="normal" font-weight="normal" text-decoration="none" x="0" y="180">UNREGISTERED</text><text fill="#eeeeee" stroke="none" font-family="Arial" font-size="24px" font-style="normal" font-weight="normal" text-decoration="none" x="0" y="210">UNREGISTERED</text><text fill="#eeeeee" stroke="none" font-family="Arial" font-size="24px" font-style="normal" font-weight="normal" text-decoration="none" x="0" y="240">UNREGISTERED</text><text fill="#eeeeee" stroke="none" font-family="Arial" font-size="24px" font-style="normal" font-weight="normal" text-decoration="none" x="0" y="270">UNREGISTERED</text><text fill="#eeeeee" stroke="none" font-family="Arial" font-size="24px" font-style="normal" font-weight="normal" text-decoration="none" x="0" y="300">UNREGISTERED</text><text fill="#eeeeee" stroke="none" font-family="Arial" font-size="24px" font-style="normal" font-weight="normal" text-decoration="none" x="0" y="330">UNREGISTERED</text><text fill="#eeeeee" stroke="none" font-family="Arial" font-size="24px" font-style="normal" font-weight="normal" text-decoration="none" x="0" y="360">UNREGISTERED</text><text fill="#eeeeee" stroke="none" font-family="Arial" font-size="24px" font-style="normal" font-weight="normal" text-decoration="none" x="0" y="390">UNREGISTERED</text><text fill="#eeeeee" stroke="none" font-family="Arial" font-size="24px" font-style="normal" font-weight="normal" text-decoration="none" x="0" y="420">UNREGISTERED</text><text fill="#eeeeee" stroke="none" font-family="Arial" font-size="24px" font-style="normal" font-weight="normal" text-decoration="none" x="0" y="450">UNREGISTERED</text><text fill="#eeeeee" stroke="none" font-family="Arial" font-size="24px" font-style="normal" font-weight="normal" text-decoration="none" x="0" y="480">UNREGISTERED</text><text fill="#eeeeee" stroke="none" font-family="Arial" font-size="24px" font-style="normal" font-weight="normal" text-decoration="none" x="0" y="510">UNREGISTERED</text><text fill="#eeeeee" stroke="none" font-family="Arial" font-size="24px" font-style="normal" font-weight="normal" text-decoration="none" x="0" y="540">UNREGISTERED</text><text fill="#eeeeee" stroke="none" font-family="Arial" font-size="24px" font-style="normal" font-weight="normal" text-decoration="none" x="0" y="570">UNREGISTERED</text><text fill="#eeeeee" stroke="none" font-family="Arial" font-size="24px" font-style="normal" font-weight="normal" text-decoration="none" x="0" y="600">UNREGISTERED</text><text fill="#eeeeee" stroke="none" font-family="Arial" font-size="24px" font-style="normal" font-weight="normal" text-decoration="none" x="200" y="0">UNREGISTERED</text><text fill="#eeeeee" stroke="none" font-family="Arial" font-size="24px" font-style="normal" font-weight="normal" text-decoration="none" x="200" y="30">UNREGISTERED</text><text fill="#eeeeee" stroke="none" font-family="Arial" font-size="24px" font-style="normal" font-weight="normal" text-decoration="none" x="200" y="60">UNREGISTERED</text><text fill="#eeeeee" stroke="none" font-family="Arial" font-size="24px" font-style="normal" font-weight="normal" text-decoration="none" x="200" y="90">UNREGISTERED</text><text fill="#eeeeee" stroke="none" font-family="Arial" font-size="24px" font-style="normal" font-weight="normal" text-decoration="none" x="200" y="120">UNREGISTERED</text><text fill="#eeeeee" stroke="none" font-family="Arial" font-size="24px" font-style="normal" font-weight="normal" text-decoration="none" x="200" y="150">UNREGISTERED</text><text fill="#eeeeee" stroke="none" font-family="Arial" font-size="24px" font-style="normal" font-weight="normal" text-decoration="none" x="200" y="180">UNREGISTERED</text><text fill="#eeeeee" stroke="none" font-family="Arial" font-size="24px" font-style="normal" font-weight="normal" text-decoration="none" x="200" y="210">UNREGISTERED</text><text fill="#eeeeee" stroke="none" font-family="Arial" font-size="24px" font-style="normal" font-weight="normal" text-decoration="none" x="200" y="240">UNREGISTERED</text><text fill="#eeeeee" stroke="none" font-family="Arial" font-size="24px" font-style="normal" font-weight="normal" text-decoration="none" x="200" y="270">UNREGISTERED</text><text fill="#eeeeee" stroke="none" font-family="Arial" font-size="24px" font-style="normal" font-weight="normal" text-decoration="none" x="200" y="300">UNREGISTERED</text><text fill="#eeeeee" stroke="none" font-family="Arial" font-size="24px" font-style="normal" font-weight="normal" text-decoration="none" x="200" y="330">UNREGISTERED</text><text fill="#eeeeee" stroke="none" font-family="Arial" font-size="24px" font-style="normal" font-weight="normal" text-decoration="none" x="200" y="360">UNREGISTERED</text><text fill="#eeeeee" stroke="none" font-family="Arial" font-size="24px" font-style="normal" font-weight="normal" text-decoration="none" x="200" y="390">UNREGISTERED</text><text fill="#eeeeee" stroke="none" font-family="Arial" font-size="24px" font-style="normal" font-weight="normal" text-decoration="none" x="200" y="420">UNREGISTERED</text><text fill="#eeeeee" stroke="none" font-family="Arial" font-size="24px" font-style="normal" font-weight="normal" text-decoration="none" x="200" y="450">UNREGISTERED</text><text fill="#eeeeee" stroke="none" font-family="Arial" font-size="24px" font-style="normal" font-weight="normal" text-decoration="none" x="200" y="480">UNREGISTERED</text><text fill="#eeeeee" stroke="none" font-family="Arial" font-size="24px" font-style="normal" font-weight="normal" text-decoration="none" x="200" y="510">UNREGISTERED</text><text fill="#eeeeee" stroke="none" font-family="Arial" font-size="24px" font-style="normal" font-weight="normal" text-decoration="none" x="200" y="540">UNREGISTERED</text><text fill="#eeeeee" stroke="none" font-family="Arial" font-size="24px" font-style="normal" font-weight="normal" text-decoration="none" x="200" y="570">UNREGISTERED</text><text fill="#eeeeee" stroke="none" font-family="Arial" font-size="24px" font-style="normal" font-weight="normal" text-decoration="none" x="200" y="600">UNREGISTERED</text><text fill="#eeeeee" stroke="none" font-family="Arial" font-size="24px" font-style="normal" font-weight="normal" text-decoration="none" x="400" y="0">UNREGISTERED</text><text fill="#eeeeee" stroke="none" font-family="Arial" font-size="24px" font-style="normal" font-weight="normal" text-decoration="none" x="400" y="30">UNREGISTERED</text><text fill="#eeeeee" stroke="none" font-family="Arial" font-size="24px" font-style="normal" font-weight="normal" text-decoration="none" x="400" y="60">UNREGISTERED</text><text fill="#eeeeee" stroke="none" font-family="Arial" font-size="24px" font-style="normal" font-weight="normal" text-decoration="none" x="400" y="90">UNREGISTERED</text><text fill="#eeeeee" stroke="none" font-family="Arial" font-size="24px" font-style="normal" font-weight="normal" text-decoration="none" x="400" y="120">UNREGISTERED</text><text fill="#eeeeee" stroke="none" font-family="Arial" font-size="24px" font-style="normal" font-weight="normal" text-decoration="none" x="400" y="150">UNREGISTERED</text><text fill="#eeeeee" stroke="none" font-family="Arial" font-size="24px" font-style="normal" font-weight="normal" text-decoration="none" x="400" y="180">UNREGISTERED</text><text fill="#eeeeee" stroke="none" font-family="Arial" font-size="24px" font-style="normal" font-weight="normal" text-decoration="none" x="400" y="210">UNREGISTERED</text><text fill="#eeeeee" stroke="none" font-family="Arial" font-size="24px" font-style="normal" font-weight="normal" text-decoration="none" x="400" y="240">UNREGISTERED</text><text fill="#eeeeee" stroke="none" font-family="Arial" font-size="24px" font-style="normal" font-weight="normal" text-decoration="none" x="400" y="270">UNREGISTERED</text><text fill="#eeeeee" stroke="none" font-family="Arial" font-size="24px" font-style="normal" font-weight="normal" text-decoration="none" x="400" y="300">UNREGISTERED</text><text fill="#eeeeee" stroke="none" font-family="Arial" font-size="24px" font-style="normal" font-weight="normal" text-decoration="none" x="400" y="330">UNREGISTERED</text><text fill="#eeeeee" stroke="none" font-family="Arial" font-size="24px" font-style="normal" font-weight="normal" text-decoration="none" x="400" y="360">UNREGISTERED</text><text fill="#eeeeee" stroke="none" font-family="Arial" font-size="24px" font-style="normal" font-weight="normal" text-decoration="none" x="400" y="390">UNREGISTERED</text><text fill="#eeeeee" stroke="none" font-family="Arial" font-size="24px" font-style="normal" font-weight="normal" text-decoration="none" x="400" y="420">UNREGISTERED</text><text fill="#eeeeee" stroke="none" font-family="Arial" font-size="24px" font-style="normal" font-weight="normal" text-decoration="none" x="400" y="450">UNREGISTERED</text><text fill="#eeeeee" stroke="none" font-family="Arial" font-size="24px" font-style="normal" font-weight="normal" text-decoration="none" x="400" y="480">UNREGISTERED</text><text fill="#eeeeee" stroke="none" font-family="Arial" font-size="24px" font-style="normal" font-weight="normal" text-decoration="none" x="400" y="510">UNREGISTERED</text><text fill="#eeeeee" stroke="none" font-family="Arial" font-size="24px" font-style="normal" font-weight="normal" text-decoration="none" x="400" y="540">UNREGISTERED</text><text fill="#eeeeee" stroke="none" font-family="Arial" font-size="24px" font-style="normal" font-weight="normal" text-decoration="none" x="400" y="570">UNREGISTERED</text><text fill="#eeeeee" stroke="none" font-family="Arial" font-size="24px" font-style="normal" font-weight="normal" text-decoration="none" x="400" y="600">UNREGISTERED</text><text fill="#eeeeee" stroke="none" font-family="Arial" font-size="24px" font-style="normal" font-weight="normal" text-decoration="none" x="600" y="0">UNREGISTERED</text><text fill="#eeeeee" stroke="none" font-family="Arial" font-size="24px" font-style="normal" font-weight="normal" text-decoration="none" x="600" y="30">UNREGISTERED</text><text fill="#eeeeee" stroke="none" font-family="Arial" font-size="24px" font-style="normal" font-weight="normal" text-decoration="none" x="600" y="60">UNREGISTERED</text><text fill="#eeeeee" stroke="none" font-family="Arial" font-size="24px" font-style="normal" font-weight="normal" text-decoration="none" x="600" y="90">UNREGISTERED</text><text fill="#eeeeee" stroke="none" font-family="Arial" font-size="24px" font-style="normal" font-weight="normal" text-decoration="none" x="600" y="120">UNREGISTERED</text><text fill="#eeeeee" stroke="none" font-family="Arial" font-size="24px" font-style="normal" font-weight="normal" text-decoration="none" x="600" y="150">UNREGISTERED</text><text fill="#eeeeee" stroke="none" font-family="Arial" font-size="24px" font-style="normal" font-weight="normal" text-decoration="none" x="600" y="180">UNREGISTERED</text><text fill="#eeeeee" stroke="none" font-family="Arial" font-size="24px" font-style="normal" font-weight="normal" text-decoration="none" x="600" y="210">UNREGISTERED</text><text fill="#eeeeee" stroke="none" font-family="Arial" font-size="24px" font-style="normal" font-weight="normal" text-decoration="none" x="600" y="240">UNREGISTERED</text><text fill="#eeeeee" stroke="none" font-family="Arial" font-size="24px" font-style="normal" font-weight="normal" text-decoration="none" x="600" y="270">UNREGISTERED</text><text fill="#eeeeee" stroke="none" font-family="Arial" font-size="24px" font-style="normal" font-weight="normal" text-decoration="none" x="600" y="300">UNREGISTERED</text><text fill="#eeeeee" stroke="none" font-family="Arial" font-size="24px" font-style="normal" font-weight="normal" text-decoration="none" x="600" y="330">UNREGISTERED</text><text fill="#eeeeee" stroke="none" font-family="Arial" font-size="24px" font-style="normal" font-weight="normal" text-decoration="none" x="600" y="360">UNREGISTERED</text><text fill="#eeeeee" stroke="none" font-family="Arial" font-size="24px" font-style="normal" font-weight="normal" text-decoration="none" x="600" y="390">UNREGISTERED</text><text fill="#eeeeee" stroke="none" font-family="Arial" font-size="24px" font-style="normal" font-weight="normal" text-decoration="none" x="600" y="420">UNREGISTERED</text><text fill="#eeeeee" stroke="none" font-family="Arial" font-size="24px" font-style="normal" font-weight="normal" text-decoration="none" x="600" y="450">UNREGISTERED</text><text fill="#eeeeee" stroke="none" font-family="Arial" font-size="24px" font-style="normal" font-weight="normal" text-decoration="none" x="600" y="480">UNREGISTERED</text><text fill="#eeeeee" stroke="none" font-family="Arial" font-size="24px" font-style="normal" font-weight="normal" text-decoration="none" x="600" y="510">UNREGISTERED</text><text fill="#eeeeee" stroke="none" font-family="Arial" font-size="24px" font-style="normal" font-weight="normal" text-decoration="none" x="600" y="540">UNREGISTERED</text><text fill="#eeeeee" stroke="none" font-family="Arial" font-size="24px" font-style="normal" font-weight="normal" text-decoration="none" x="600" y="570">UNREGISTERED</text><text fill="#eeeeee" stroke="none" font-family="Arial" font-size="24px" font-style="normal" font-weight="normal" text-decoration="none" x="600" y="600">UNREGISTERED</text><g transform="translate(-78,-6) scale(1,1)"><rect fill="#C0C0C0" stroke="none" x="343" y="23" width="177.09716796875" height="136" opacity="0.2"/></g><g transform="translate(-78,-6) scale(1,1)"><rect fill="#ffffff" stroke="none" x="336" y="16" width="177.09716796875" height="136"/></g><g transform="translate(-78,-6) scale(1,1)"><path fill="none" stroke="#000000" d="M 336 16 L 513.09716796875 16 L 513.09716796875 152 L 336 152 L 336 16 Z Z" stroke-miterlimit="10"/></g><g transform="translate(-78,-6) scale(1,1)"><path fill="none" stroke="#000000" d="M 336 39 L 513.09716796875 39" stroke-miterlimit="10"/></g><g transform="translate(-78,-6) scale(1,1)"><path fill="none" stroke="#000000" d="M 364.05908203125 39 L 364.05908203125 152" stroke-miterlimit="10"/></g><g transform="translate(-78,-6) scale(1,1)"><path fill="none" stroke="#000000" d="M 492.5380859375 39 L 492.5380859375 152" stroke-miterlimit="10"/></g><g transform="translate(-78,-6) scale(1,1)"><g><path fill="none" stroke="none"/><text fill="#000000" stroke="none" font-family="Arial" font-size="13px" font-style="normal" font-weight="bold" text-decoration="none" x="398.897705078125" y="33.5">Batiment</text></g></g><g transform="translate(-78,-6) scale(1,1)"><g><path fill="none" stroke="none"/><text fill="#000000" stroke="none" font-family="Arial" font-size="13px" font-style="normal" font-weight="normal" text-decoration="none" x="341" y="57">PK</text></g></g><g transform="translate(-78,-6) scale(1,1)"><g><path fill="none" stroke="none"/><text fill="#000000" stroke="none" font-family="Arial" font-size="13px" font-style="normal" font-weight="normal" text-decoration="none" x="369.05908203125" y="57">id_batiment</text></g></g><g transform="translate(-78,-6) scale(1,1)"><g><path fill="none" stroke="none"/><text fill="#000000" stroke="none" font-family="Arial" font-size="13px" font-style="normal" font-weight="normal" text-decoration="none" x="497.5380859375" y="57"></text></g></g><g transform="translate(-78,-6) scale(1,1)"><g><path fill="none" stroke="none"/><text fill="#000000" stroke="none" font-family="Arial" font-size="13px" font-style="normal" font-weight="normal" text-decoration="none" x="341" y="56.5"></text></g></g><g transform="translate(-78,-6) scale(1,1)"><g><path fill="none" stroke="none"/><text fill="#000000" stroke="none" font-family="Arial" font-size="13px" font-style="normal" font-weight="normal" text-decoration="none" x="341" y="72"></text></g></g><g transform="translate(-78,-6) scale(1,1)"><g><path fill="none" stroke="none"/><text fill="#000000" stroke="none" font-family="Arial" font-size="13px" font-style="normal" font-weight="normal" text-decoration="none" x="369.05908203125" y="72">adreseBtatiment</text></g></g><g transform="translate(-78,-6) scale(1,1)"><g><path fill="none" stroke="none"/><text fill="#000000" stroke="none" font-family="Arial" font-size="13px" font-style="normal" font-weight="normal" text-decoration="none" x="497.5380859375" y="72"></text></g></g><g transform="translate(-78,-6) scale(1,1)"><g><path fill="none" stroke="none"/><text fill="#000000" stroke="none" font-family="Arial" font-size="13px" font-style="normal" font-weight="normal" text-decoration="none" x="341" y="71.5"></text></g></g><g transform="translate(-78,-6) scale(1,1)"><g><path fill="none" stroke="none"/><text fill="#000000" stroke="none" font-family="Arial" font-size="13px" font-style="normal" font-weight="normal" text-decoration="none" x="341" y="87"></text></g></g><g transform="translate(-78,-6) scale(1,1)"><g><path fill="none" stroke="none"/><text fill="#000000" stroke="none" font-family="Arial" font-size="13px" font-style="normal" font-weight="normal" text-decoration="none" x="369.05908203125" y="87">nb_etages</text></g></g><g transform="translate(-78,-6) scale(1,1)"><g><path fill="none" stroke="none"/><text fill="#000000" stroke="none" font-family="Arial" font-size="13px" font-style="normal" font-weight="normal" text-decoration="none" x="497.5380859375" y="87"></text></g></g><g transform="translate(-78,-6) scale(1,1)"><g><path fill="none" stroke="none"/><text fill="#000000" stroke="none" font-family="Arial" font-size="13px" font-style="normal" font-weight="normal" text-decoration="none" x="341" y="86.5"></text></g></g><g transform="translate(-78,-6) scale(1,1)"><g><path fill="none" stroke="none"/><text fill="#000000" stroke="none" font-family="Arial" font-size="13px" font-style="normal" font-weight="normal" text-decoration="none" x="341" y="102"></text></g></g><g transform="translate(-78,-6) scale(1,1)"><g><path fill="none" stroke="none"/><text fill="#000000" stroke="none" font-family="Arial" font-size="13px" font-style="normal" font-weight="normal" text-decoration="none" x="369.05908203125" y="102">nb_niveau_parking</text></g></g><g transform="translate(-78,-6) scale(1,1)"><g><path fill="none" stroke="none"/><text fill="#000000" stroke="none" font-family="Arial" font-size="13px" font-style="normal" font-weight="normal" text-decoration="none" x="497.5380859375" y="102"></text></g></g><g transform="translate(-78,-6) scale(1,1)"><g><path fill="none" stroke="none"/><text fill="#000000" stroke="none" font-family="Arial" font-size="13px" font-style="normal" font-weight="normal" text-decoration="none" x="341" y="101.5"></text></g></g><g transform="translate(-78,-6) scale(1,1)"><rect fill="#C0C0C0" stroke="none" x="423" y="487" width="183.59716796875" height="120" opacity="0.2"/></g><g transform="translate(-78,-6) scale(1,1)"><rect fill="#ffffff" stroke="none" x="416" y="480" width="183.59716796875" height="120"/></g><g transform="translate(-78,-6) scale(1,1)"><path fill="none" stroke="#000000" d="M 416 480 L 599.59716796875 480 L 599.59716796875 600 L 416 600 L 416 480 Z Z" stroke-miterlimit="10"/></g><g transform="translate(-78,-6) scale(1,1)"><path fill="none" stroke="#000000" d="M 416 503 L 599.59716796875 503" stroke-miterlimit="10"/></g><g transform="translate(-78,-6) scale(1,1)"><path fill="none" stroke="#000000" d="M 444.05908203125 503 L 444.05908203125 600" stroke-miterlimit="10"/></g><g transform="translate(-78,-6) scale(1,1)"><path fill="none" stroke="#000000" d="M 569.65625 503 L 569.65625 600" stroke-miterlimit="10"/></g><g transform="translate(-78,-6) scale(1,1)"><g><path fill="none" stroke="none"/><text fill="#000000" stroke="none" font-family="Arial" font-size="13px" font-style="normal" font-weight="bold" text-decoration="none" x="444.56640625" y="497.5">Appartement/Bureaux</text></g></g><g transform="translate(-78,-6) scale(1,1)"><g><path fill="none" stroke="none"/><text fill="#000000" stroke="none" font-family="Arial" font-size="13px" font-style="normal" font-weight="normal" text-decoration="none" x="421" y="521">PK</text></g></g><g transform="translate(-78,-6) scale(1,1)"><g><path fill="none" stroke="none"/><text fill="#000000" stroke="none" font-family="Arial" font-size="13px" font-style="normal" font-weight="normal" text-decoration="none" x="449.05908203125" y="521">id_bienVendu</text></g></g><g transform="translate(-78,-6) scale(1,1)"><g><path fill="none" stroke="none"/><text fill="#000000" stroke="none" font-family="Arial" font-size="13px" font-style="normal" font-weight="normal" text-decoration="none" x="574.65625" y="521"></text></g></g><g transform="translate(-78,-6) scale(1,1)"><g><path fill="none" stroke="none"/><text fill="#000000" stroke="none" font-family="Arial" font-size="13px" font-style="normal" font-weight="normal" text-decoration="none" x="421" y="520.5"></text></g></g><g transform="translate(-78,-6) scale(1,1)"><g><path fill="none" stroke="none"/><text fill="#000000" stroke="none" font-family="Arial" font-size="13px" font-style="normal" font-weight="normal" text-decoration="none" x="421" y="536">PK</text></g></g><g transform="translate(-78,-6) scale(1,1)"><g><path fill="none" stroke="none"/><text fill="#000000" stroke="none" font-family="Arial" font-size="13px" font-style="normal" font-weight="normal" text-decoration="none" x="449.05908203125" y="536">num_etage</text></g></g><g transform="translate(-78,-6) scale(1,1)"><g><path fill="none" stroke="none"/><text fill="#000000" stroke="none" font-family="Arial" font-size="13px" font-style="normal" font-weight="normal" text-decoration="none" x="574.65625" y="536"></text></g></g><g transform="translate(-78,-6) scale(1,1)"><g><path fill="none" stroke="none"/><text fill="#000000" stroke="none" font-family="Arial" font-size="13px" font-style="normal" font-weight="normal" text-decoration="none" x="421" y="535.5"></text></g></g><g transform="translate(-78,-6) scale(1,1)"><g><path fill="none" stroke="none"/><text fill="#000000" stroke="none" font-family="Arial" font-size="13px" font-style="normal" font-weight="normal" text-decoration="none" x="421" y="551">PK</text></g></g><g transform="translate(-78,-6) scale(1,1)"><g><path fill="none" stroke="none"/><text fill="#000000" stroke="none" font-family="Arial" font-size="13px" font-style="normal" font-weight="normal" text-decoration="none" x="449.05908203125" y="551">num_batiment</text></g></g><g transform="translate(-78,-6) scale(1,1)"><g><path fill="none" stroke="none"/><text fill="#000000" stroke="none" font-family="Arial" font-size="13px" font-style="normal" font-weight="normal" text-decoration="none" x="574.65625" y="551"></text></g></g><g transform="translate(-78,-6) scale(1,1)"><g><path fill="none" stroke="none"/><text fill="#000000" stroke="none" font-family="Arial" font-size="13px" font-style="normal" font-weight="normal" text-decoration="none" x="421" y="550.5"></text></g></g><g transform="translate(-78,-6) scale(1,1)"><g><path fill="none" stroke="none"/><text fill="#000000" stroke="none" font-family="Arial" font-size="13px" font-style="normal" font-weight="normal" text-decoration="none" x="421" y="566"></text></g></g><g transform="translate(-78,-6) scale(1,1)"><g><path fill="none" stroke="none"/><text fill="#000000" stroke="none" font-family="Arial" font-size="13px" font-style="normal" font-weight="normal" text-decoration="none" x="449.05908203125" y="566">type_bienVendu</text></g></g><g transform="translate(-78,-6) scale(1,1)"><g><path fill="none" stroke="none"/><text fill="#000000" stroke="none" font-family="Arial" font-size="13px" font-style="normal" font-weight="normal" text-decoration="none" x="574.65625" y="566"></text></g></g><g transform="translate(-78,-6) scale(1,1)"><g><path fill="none" stroke="none"/><text fill="#000000" stroke="none" font-family="Arial" font-size="13px" font-style="normal" font-weight="normal" text-decoration="none" x="421" y="565.5"></text></g></g><g transform="translate(-78,-6) scale(1,1)"><g><path fill="none" stroke="none"/><text fill="#000000" stroke="none" font-family="Arial" font-size="13px" font-style="normal" font-weight="normal" text-decoration="none" x="421" y="581">FK</text></g></g><g transform="translate(-78,-6) scale(1,1)"><g><path fill="none" stroke="none"/><text fill="#000000" stroke="none" font-family="Arial" font-size="13px" font-style="normal" font-weight="normal" text-decoration="none" x="449.05908203125" y="581">num_placeParking</text></g></g><g transform="translate(-78,-6) scale(1,1)"><g><path fill="none" stroke="none"/><text fill="#000000" stroke="none" font-family="Arial" font-size="13px" font-style="normal" font-weight="normal" text-decoration="none" x="574.65625" y="581"></text></g></g><g transform="translate(-78,-6) scale(1,1)"><g><path fill="none" stroke="none"/><text fill="#000000" stroke="none" font-family="Arial" font-size="13px" font-style="normal" font-weight="normal" text-decoration="none" x="421" y="580.5"></text></g></g><g transform="translate(-78,-6) scale(1,1)"><g><path fill="none" stroke="none"/><text fill="#000000" stroke="none" font-family="Arial" font-size="13px" font-style="normal" font-weight="normal" text-decoration="none" x="421" y="596"></text></g></g><g transform="translate(-78,-6) scale(1,1)"><g><path fill="none" stroke="none"/><text fill="#000000" stroke="none" font-family="Arial" font-size="13px" font-style="normal" font-weight="normal" text-decoration="none" x="449.05908203125" y="596">nom_proprietaire</text></g></g><g transform="translate(-78,-6) scale(1,1)"><g><path fill="none" stroke="none"/><text fill="#000000" stroke="none" font-family="Arial" font-size="13px" font-style="normal" font-weight="normal" text-decoration="none" x="574.65625" y="596"></text></g></g><g transform="translate(-78,-6) scale(1,1)"><g><path fill="none" stroke="none"/><text fill="#000000" stroke="none" font-family="Arial" font-size="13px" font-style="normal" font-weight="normal" text-decoration="none" x="421" y="595.5"></text></g></g><g transform="translate(-78,-6) scale(1,1)"><rect fill="#C0C0C0" stroke="none" x="591" y="231" width="167" height="120" opacity="0.2"/></g><g transform="translate(-78,-6) scale(1,1)"><rect fill="#ffffff" stroke="none" x="584" y="224" width="167" height="120"/></g><g transform="translate(-78,-6) scale(1,1)"><path fill="none" stroke="#000000" d="M 584 224 L 751 224 L 751 344 L 584 344 L 584 224 Z Z" stroke-miterlimit="10"/></g><g transform="translate(-78,-6) scale(1,1)"><path fill="none" stroke="#000000" d="M 584 247 L 751 247" stroke-miterlimit="10"/></g><g transform="translate(-78,-6) scale(1,1)"><path fill="none" stroke="#000000" d="M 612.05908203125 247 L 612.05908203125 344" stroke-miterlimit="10"/></g><g transform="translate(-78,-6) scale(1,1)"><path fill="none" stroke="#000000" d="M 734.7490234375 247 L 734.7490234375 344" stroke-miterlimit="10"/></g><g transform="translate(-78,-6) scale(1,1)"><g><path fill="none" stroke="none"/><text fill="#000000" stroke="none" font-family="Arial" font-size="13px" font-style="normal" font-weight="bold" text-decoration="none" x="650.513671875" y="241.5">Etage</text></g></g><g transform="translate(-78,-6) scale(1,1)"><g><path fill="none" stroke="none"/><text fill="#000000" stroke="none" font-family="Arial" font-size="13px" font-style="normal" font-weight="normal" text-decoration="none" x="589" y="265">PK</text></g></g><g transform="translate(-78,-6) scale(1,1)"><g><path fill="none" stroke="none"/><text fill="#000000" stroke="none" font-family="Arial" font-size="13px" font-style="normal" font-weight="normal" text-decoration="none" x="617.05908203125" y="265">id_etage</text></g></g><g transform="translate(-78,-6) scale(1,1)"><g><path fill="none" stroke="none"/><text fill="#000000" stroke="none" font-family="Arial" font-size="13px" font-style="normal" font-weight="normal" text-decoration="none" x="739.7490234375" y="265"></text></g></g><g transform="translate(-78,-6) scale(1,1)"><g><path fill="none" stroke="none"/><text fill="#000000" stroke="none" font-family="Arial" font-size="13px" font-style="normal" font-weight="normal" text-decoration="none" x="589" y="264.5"></text></g></g><g transform="translate(-78,-6) scale(1,1)"><g><path fill="none" stroke="none"/><text fill="#000000" stroke="none" font-family="Arial" font-size="13px" font-style="normal" font-weight="normal" text-decoration="none" x="589" y="280"></text></g></g><g transform="translate(-78,-6) scale(1,1)"><g><path fill="none" stroke="none"/><text fill="#000000" stroke="none" font-family="Arial" font-size="13px" font-style="normal" font-weight="normal" text-decoration="none" x="617.05908203125" y="280">num_bureaux</text></g></g><g transform="translate(-78,-6) scale(1,1)"><g><path fill="none" stroke="none"/><text fill="#000000" stroke="none" font-family="Arial" font-size="13px" font-style="normal" font-weight="normal" text-decoration="none" x="739.7490234375" y="280"></text></g></g><g transform="translate(-78,-6) scale(1,1)"><g><path fill="none" stroke="none"/><text fill="#000000" stroke="none" font-family="Arial" font-size="13px" font-style="normal" font-weight="normal" text-decoration="none" x="589" y="279.5"></text></g></g><g transform="translate(-78,-6) scale(1,1)"><g><path fill="none" stroke="none"/><text fill="#000000" stroke="none" font-family="Arial" font-size="13px" font-style="normal" font-weight="normal" text-decoration="none" x="589" y="295"></text></g></g><g transform="translate(-78,-6) scale(1,1)"><g><path fill="none" stroke="none"/><text fill="#000000" stroke="none" font-family="Arial" font-size="13px" font-style="normal" font-weight="normal" text-decoration="none" x="617.05908203125" y="295">num_appartement</text></g></g><g transform="translate(-78,-6) scale(1,1)"><g><path fill="none" stroke="none"/><text fill="#000000" stroke="none" font-family="Arial" font-size="13px" font-style="normal" font-weight="normal" text-decoration="none" x="739.7490234375" y="295"></text></g></g><g transform="translate(-78,-6) scale(1,1)"><g><path fill="none" stroke="none"/><text fill="#000000" stroke="none" font-family="Arial" font-size="13px" font-style="normal" font-weight="normal" text-decoration="none" x="589" y="294.5"></text></g></g><g transform="translate(-78,-6) scale(1,1)"><rect fill="#C0C0C0" stroke="none" x="95" y="239" width="161.20263671875" height="80" opacity="0.2"/></g><g transform="translate(-78,-6) scale(1,1)"><rect fill="#ffffff" stroke="none" x="88" y="232" width="161.20263671875" height="80"/></g><g transform="translate(-78,-6) scale(1,1)"><path fill="none" stroke="#000000" d="M 88 232 L 249.20263671875 232 L 249.20263671875 312 L 88 312 L 88 232 Z Z" stroke-miterlimit="10"/></g><g transform="translate(-78,-6) scale(1,1)"><path fill="none" stroke="#000000" d="M 88 255 L 249.20263671875 255" stroke-miterlimit="10"/></g><g transform="translate(-78,-6) scale(1,1)"><path fill="none" stroke="#000000" d="M 116.05908203125 255 L 116.05908203125 312" stroke-miterlimit="10"/></g><g transform="translate(-78,-6) scale(1,1)"><path fill="none" stroke="#000000" d="M 240.20263671875 255 L 240.20263671875 312" stroke-miterlimit="10"/></g><g transform="translate(-78,-6) scale(1,1)"><g><path fill="none" stroke="none"/><text fill="#000000" stroke="none" font-family="Arial" font-size="13px" font-style="normal" font-weight="bold" text-decoration="none" x="124.523193359375" y="249.5">Niveau/Parking</text></g></g><g transform="translate(-78,-6) scale(1,1)"><g><path fill="none" stroke="none"/><text fill="#000000" stroke="none" font-family="Arial" font-size="13px" font-style="normal" font-weight="normal" text-decoration="none" x="93" y="273">PK</text></g></g><g transform="translate(-78,-6) scale(1,1)"><g><path fill="none" stroke="none"/><text fill="#000000" stroke="none" font-family="Arial" font-size="13px" font-style="normal" font-weight="normal" text-decoration="none" x="121.05908203125" y="273">niveau_parking</text></g></g><g transform="translate(-78,-6) scale(1,1)"><g><path fill="none" stroke="none"/><text fill="#000000" stroke="none" font-family="Arial" font-size="13px" font-style="normal" font-weight="normal" text-decoration="none" x="245.20263671875" y="273"></text></g></g><g transform="translate(-78,-6) scale(1,1)"><g><path fill="none" stroke="none"/><text fill="#000000" stroke="none" font-family="Arial" font-size="13px" font-style="normal" font-weight="normal" text-decoration="none" x="93" y="272.5"></text></g></g><g transform="translate(-78,-6) scale(1,1)"><g><path fill="none" stroke="none"/><text fill="#000000" stroke="none" font-family="Arial" font-size="13px" font-style="normal" font-weight="normal" text-decoration="none" x="93" y="288"></text></g></g><g transform="translate(-78,-6) scale(1,1)"><g><path fill="none" stroke="none"/><text fill="#000000" stroke="none" font-family="Arial" font-size="13px" font-style="normal" font-weight="normal" text-decoration="none" x="121.05908203125" y="288">num_deplacement</text></g></g><g transform="translate(-78,-6) scale(1,1)"><g><path fill="none" stroke="none"/><text fill="#000000" stroke="none" font-family="Arial" font-size="13px" font-style="normal" font-weight="normal" text-decoration="none" x="245.20263671875" y="288"></text></g></g><g transform="translate(-78,-6) scale(1,1)"><g><path fill="none" stroke="none"/><text fill="#000000" stroke="none" font-family="Arial" font-size="13px" font-style="normal" font-weight="normal" text-decoration="none" x="93" y="287.5"></text></g></g><g transform="translate(-78,-6) scale(1,1)"><rect fill="#C0C0C0" stroke="none" x="103" y="487" width="215" height="127" opacity="0.2"/></g><g transform="translate(-78,-6) scale(1,1)"><rect fill="#ffffff" stroke="none" x="96" y="480" width="215" height="127"/></g><g transform="translate(-78,-6) scale(1,1)"><path fill="none" stroke="#000000" d="M 96 480 L 311 480 L 311 607 L 96 607 L 96 480 Z Z" stroke-miterlimit="10"/></g><g transform="translate(-78,-6) scale(1,1)"><path fill="none" stroke="#000000" d="M 96 503 L 311 503" stroke-miterlimit="10"/></g><g transform="translate(-78,-6) scale(1,1)"><path fill="none" stroke="#000000" d="M 124.05908203125 503 L 124.05908203125 607" stroke-miterlimit="10"/></g><g transform="translate(-78,-6) scale(1,1)"><path fill="none" stroke="#000000" d="M 256.15625 503 L 256.15625 607" stroke-miterlimit="10"/></g><g transform="translate(-78,-6) scale(1,1)"><g><path fill="none" stroke="none"/><text fill="#000000" stroke="none" font-family="Arial" font-size="13px" font-style="normal" font-weight="bold" text-decoration="none" x="162.31005859375" y="497.5">Place parking </text></g></g><g transform="translate(-78,-6) scale(1,1)"><g><path fill="none" stroke="none"/><text fill="#000000" stroke="none" font-family="Arial" font-size="13px" font-style="normal" font-weight="normal" text-decoration="none" x="101" y="521">PK</text></g></g><g transform="translate(-78,-6) scale(1,1)"><g><path fill="none" stroke="none"/><text fill="#000000" stroke="none" font-family="Arial" font-size="13px" font-style="normal" font-weight="normal" text-decoration="none" x="129.05908203125" y="521">num_place_parking</text></g></g><g transform="translate(-78,-6) scale(1,1)"><g><path fill="none" stroke="none"/><text fill="#000000" stroke="none" font-family="Arial" font-size="13px" font-style="normal" font-weight="normal" text-decoration="none" x="261.15625" y="521"></text></g></g><g transform="translate(-78,-6) scale(1,1)"><g><path fill="none" stroke="none"/><text fill="#000000" stroke="none" font-family="Arial" font-size="13px" font-style="normal" font-weight="normal" text-decoration="none" x="101" y="520.5"></text></g></g><g transform="translate(-78,-6) scale(1,1)"><g><path fill="none" stroke="none"/><text fill="#000000" stroke="none" font-family="Arial" font-size="13px" font-style="normal" font-weight="normal" text-decoration="none" x="101" y="536">FK</text></g></g><g transform="translate(-78,-6) scale(1,1)"><g><path fill="none" stroke="none"/><text fill="#000000" stroke="none" font-family="Arial" font-size="13px" font-style="normal" font-weight="normal" text-decoration="none" x="129.05908203125" y="536">id_bienVendu</text></g></g><g transform="translate(-78,-6) scale(1,1)"><g><path fill="none" stroke="none"/><text fill="#000000" stroke="none" font-family="Arial" font-size="13px" font-style="normal" font-weight="normal" text-decoration="none" x="261.15625" y="536"></text></g></g><g transform="translate(-78,-6) scale(1,1)"><g><path fill="none" stroke="none"/><text fill="#000000" stroke="none" font-family="Arial" font-size="13px" font-style="normal" font-weight="normal" text-decoration="none" x="101" y="535.5"></text></g></g><g transform="translate(-78,-6) scale(1,1)"><path fill="none" stroke="#000000" d="M 584 308 L 440 308 M 440 308 A 8 8 0 0 0 432 316 L 432 480" stroke-miterlimit="10"/></g><g transform="translate(-78,-6) scale(1,1)"><path fill="none" stroke="#000000" d="M 432 466 L 425 480" stroke-miterlimit="10"/></g><g transform="translate(-78,-6) scale(1,1)"><path fill="none" stroke="#000000" d="M 432 466 L 439 480" stroke-miterlimit="10"/></g><g transform="translate(-78,-6) scale(1,1)"><path fill="#FFFFFF" stroke="none" d="M 425 458 C 425 454.1340064 428.1340064 451 432 451 C 435.8659936 451 439 454.1340064 439 458 C 439 461.8659936 435.8659936 465 432 465 C 428.1340064 465 425 461.8659936 425 458 Z"/></g><g transform="translate(-78,-6) scale(1,1)"><path fill="none" stroke="#000000" d="M 425 458 C 425 454.1340064 428.1340064 451 432 451 C 435.8659936 451 439 454.1340064 439 458 C 439 461.8659936 435.8659936 465 432 465 C 428.1340064 465 425 461.8659936 425 458 Z" stroke-miterlimit="10"/></g><g transform="translate(-78,-6) scale(1,1)"><path fill="none" stroke="#000000" d="M 577 315 L 577 301" stroke-miterlimit="10"/></g><g transform="translate(-78,-6) scale(1,1)"><path fill="none" stroke="#000000" d="M 570 315 L 570 301" stroke-miterlimit="10"/></g><g transform="translate(-78,-6) scale(1,1)"><g><path fill="none" stroke="none"/><text fill="#000000" stroke="none" font-family="Arial" font-size="13px" font-style="normal" font-weight="normal" text-decoration="none" x="547.5" y="328.5">1.N</text></g></g><g transform="translate(-78,-6) scale(1,1)"><g><path fill="none" stroke="none"/><text fill="#000000" stroke="none" font-family="Arial" font-size="13px" font-style="normal" font-weight="normal" text-decoration="none" x="447.5791015625" y="452.5">1.1</text></g></g><g transform="translate(-78,-6) scale(1,1)"><path fill="none" stroke="#000000" d="M 336 152 L 336 224 M 336 224 A 8 8 0 0 1 328 232 L 249 232" stroke-miterlimit="10"/></g><g transform="translate(-78,-6) scale(1,1)"><path fill="none" stroke="#000000" d="M 263 232 L 249 225" stroke-miterlimit="10"/></g><g transform="translate(-78,-6) scale(1,1)"><path fill="none" stroke="#000000" d="M 263 232 L 249 239" stroke-miterlimit="10"/></g><g transform="translate(-78,-6) scale(1,1)"><path fill="#FFFFFF" stroke="none" d="M 264 232 C 264 228.1340064 267.1340064 225 271 225 C 274.8659936 225 278 228.1340064 278 232 C 278 235.8659936 274.8659936 239 271 239 C 267.1340064 239 264 235.8659936 264 232 Z"/></g><g transform="translate(-78,-6) scale(1,1)"><path fill="none" stroke="#000000" d="M 264 232 C 264 228.1340064 267.1340064 225 271 225 C 274.8659936 225 278 228.1340064 278 232 C 278 235.8659936 274.8659936 239 271 239 C 267.1340064 239 264 235.8659936 264 232 Z" stroke-miterlimit="10"/></g><g transform="translate(-78,-6) scale(1,1)"><path fill="none" stroke="#000000" d="M 343 159 L 329 159" stroke-miterlimit="10"/></g><g transform="translate(-78,-6) scale(1,1)"><path fill="none" stroke="#000000" d="M 343 166 L 329 166" stroke-miterlimit="10"/></g><g transform="translate(-78,-6) scale(1,1)"><g><path fill="none" stroke="none"/><text fill="#000000" stroke="none" font-family="Arial" font-size="13px" font-style="normal" font-weight="normal" text-decoration="none" x="262.5" y="253.5">1.1</text></g></g><g transform="translate(-78,-6) scale(1,1)"><g><path fill="none" stroke="none"/><text fill="#000000" stroke="none" font-family="Arial" font-size="13px" font-style="normal" font-weight="normal" text-decoration="none" x="340.5" y="183.5">1.N</text></g></g><g transform="translate(-78,-6) scale(1,1)"><g><path fill="none" stroke="none"/><text fill="#000000" stroke="none" font-family="Arial" font-size="13px" font-style="normal" font-weight="normal" text-decoration="none" x="273.5" y="252.5"></text></g></g><g transform="translate(-78,-6) scale(1,1)"><g><path fill="none" stroke="none"/><text fill="#000000" stroke="none" font-family="Arial" font-size="13px" font-style="normal" font-weight="normal" text-decoration="none" x="293" y="250">comprends</text></g></g><g transform="translate(-78,-6) scale(1,1)"><path fill="none" stroke="#000000" d="M 493 152 L 493 248 M 493 248 A 8 8 0 0 0 501 256 L 584 256" stroke-miterlimit="10"/></g><g transform="translate(-78,-6) scale(1,1)"><path fill="none" stroke="#000000" d="M 570 256 L 584 263" stroke-miterlimit="10"/></g><g transform="translate(-78,-6) scale(1,1)"><path fill="none" stroke="#000000" d="M 570 256 L 584 249" stroke-miterlimit="10"/></g><g transform="translate(-78,-6) scale(1,1)"><path fill="#FFFFFF" stroke="none" d="M 555 256 C 555 252.1340064 558.1340064 249 562 249 C 565.8659936 249 569 252.1340064 569 256 C 569 259.8659936 565.8659936 263 562 263 C 558.1340064 263 555 259.8659936 555 256 Z"/></g><g transform="translate(-78,-6) scale(1,1)"><path fill="none" stroke="#000000" d="M 555 256 C 555 252.1340064 558.1340064 249 562 249 C 565.8659936 249 569 252.1340064 569 256 C 569 259.8659936 565.8659936 263 562 263 C 558.1340064 263 555 259.8659936 555 256 Z" stroke-miterlimit="10"/></g><g transform="translate(-78,-6) scale(1,1)"><path fill="none" stroke="#000000" d="M 500 159 L 486 159" stroke-miterlimit="10"/></g><g transform="translate(-78,-6) scale(1,1)"><path fill="none" stroke="#000000" d="M 500 166 L 486 166" stroke-miterlimit="10"/></g><g transform="translate(-78,-6) scale(1,1)"><g><path fill="none" stroke="none"/><text fill="#000000" stroke="none" font-family="Arial" font-size="13px" font-style="normal" font-weight="normal" text-decoration="none" x="497.5" y="183.5">1.N</text></g></g><g transform="translate(-78,-6) scale(1,1)"><g><path fill="none" stroke="none"/><text fill="#000000" stroke="none" font-family="Arial" font-size="13px" font-style="normal" font-weight="normal" text-decoration="none" x="548.5" y="247.5">1.1</text></g></g><g transform="translate(-78,-6) scale(1,1)"><path fill="none" stroke="#000000" d="M 173 312 L 173 480" stroke-miterlimit="10"/></g><g transform="translate(-78,-6) scale(1,1)"><path fill="none" stroke="#000000" d="M 173 466 L 166 480" stroke-miterlimit="10"/></g><g transform="translate(-78,-6) scale(1,1)"><path fill="none" stroke="#000000" d="M 173 466 L 180 480" stroke-miterlimit="10"/></g><g transform="translate(-78,-6) scale(1,1)"><path fill="#FFFFFF" stroke="none" d="M 166 458 C 166 454.1340064 169.1340064 451 173 451 C 176.8659936 451 180 454.1340064 180 458 C 180 461.8659936 176.8659936 465 173 465 C 169.1340064 465 166 461.8659936 166 458 Z"/></g><g transform="translate(-78,-6) scale(1,1)"><path fill="none" stroke="#000000" d="M 166 458 C 166 454.1340064 169.1340064 451 173 451 C 176.8659936 451 180 454.1340064 180 458 C 180 461.8659936 176.8659936 465 173 465 C 169.1340064 465 166 461.8659936 166 458 Z" stroke-miterlimit="10"/></g><g transform="translate(-78,-6) scale(1,1)"><path fill="none" stroke="#000000" d="M 180 319 L 166 319" stroke-miterlimit="10"/></g><g transform="translate(-78,-6) scale(1,1)"><path fill="none" stroke="#000000" d="M 180 326 L 166 326" stroke-miterlimit="10"/></g><g transform="translate(-78,-6) scale(1,1)"><g><path fill="none" stroke="none"/><text fill="#000000" stroke="none" font-family="Arial" font-size="13px" font-style="normal" font-weight="normal" text-decoration="none" x="182.5" y="459.5">1.1</text></g></g><g transform="translate(-78,-6) scale(1,1)"><g><path fill="none" stroke="none"/><text fill="#000000" stroke="none" font-family="Arial" font-size="13px" font-style="normal" font-weight="normal" text-decoration="none" x="177.5" y="343.5">1.N</text></g></g><g transform="translate(-78,-6) scale(1,1)"><g><path fill="none" stroke="none"/><text fill="#000000" stroke="none" font-family="Arial" font-size="13px" font-style="normal" font-weight="normal" text-decoration="none" x="187.5" y="460.5"></text></g></g><g transform="translate(-78,-6) scale(1,1)"><path fill="none" stroke="#000000" d="M 311 539 L 416 539" stroke-miterlimit="10"/></g><g transform="translate(-78,-6) scale(1,1)"><path fill="none" stroke="#000000" d="M 409 546 L 409 532" stroke-miterlimit="10"/></g><g transform="translate(-78,-6) scale(1,1)"><path fill="none" stroke="#000000" d="M 402 546 L 402 532" stroke-miterlimit="10"/></g><g transform="translate(-78,-6) scale(1,1)"><path fill="none" stroke="#000000" d="M 318 532 L 318 546" stroke-miterlimit="10"/></g><g transform="translate(-78,-6) scale(1,1)"><path fill="none" stroke="#000000" d="M 325 532 L 325 546" stroke-miterlimit="10"/></g><g transform="translate(-78,-6) scale(1,1)"><g><path fill="none" stroke="none"/><text fill="#000000" stroke="none" font-family="Arial" font-size="13px" font-style="normal" font-weight="normal" text-decoration="none" x="318.5" y="529.5">1.1</text></g></g><g transform="translate(-78,-6) scale(1,1)"><g><path fill="none" stroke="none"/><text fill="#000000" stroke="none" font-family="Arial" font-size="13px" font-style="normal" font-weight="normal" text-decoration="none" x="335.5" y="530.5"></text></g></g><g transform="translate(-78,-6) scale(1,1)"><g><path fill="none" stroke="none"/><text fill="#000000" stroke="none" font-family="Arial" font-size="13px" font-style="normal" font-weight="normal" text-decoration="none" x="380.5" y="530.5">1.1</text></g></g><g transform="translate(-78,-6) scale(1,1)"><g><path fill="none" stroke="none"/><text fill="#000000" stroke="none" font-family="Arial" font-size="13px" font-style="normal" font-weight="normal" text-decoration="none" x="181" y="402">comprends</text></g></g><g transform="translate(-78,-6) scale(1,1)"><g><path fill="none" stroke="none"/><text fill="#000000" stroke="none" font-family="Arial" font-size="13px" font-style="normal" font-weight="normal" text-decoration="none" x="437" y="370">comprends</text></g></g><g transform="translate(-78,-6) scale(1,1)"><g><path fill="none" stroke="none"/><text fill="#000000" stroke="none" font-family="Arial" font-size="13px" font-style="normal" font-weight="normal" text-decoration="none" x="421" y="250">comprends</text></g></g></g></svg>